<mxfile host="Electron" modified="2024-02-18T10:44:24.490Z" agent="Mozilla/5.0 (Windows NT 10.0; Win64; x64) AppleWebKit/537.36 (KHTML, like Gecko) draw.io/23.1.5 Chrome/120.0.6099.109 Electron/28.1.0 Safari/537.36" etag="PcXLSQbfn4arspgdVpdr" version="23.1.5" type="device">
  <diagram name="Страница — 1" id="jLp-ogEHKo0oMsUgEpOK">
    <mxGraphModel dx="1434" dy="844" grid="1" gridSize="10" guides="1" tooltips="1" connect="1" arrows="1" fold="1" page="1" pageScale="1" pageWidth="827" pageHeight="1169" math="0" shadow="0">
      <root>
        <mxCell id="0" />
        <mxCell id="1" parent="0" />
        <mxCell id="umgBaWDRt0BDjRgJaaFK-1" value="начало" style="ellipse;whiteSpace=wrap;html=1;" vertex="1" parent="1">
          <mxGeometry x="340" width="120" height="30" as="geometry" />
        </mxCell>
        <mxCell id="umgBaWDRt0BDjRgJaaFK-2" value="" style="endArrow=classic;html=1;rounded=0;" edge="1" parent="1">
          <mxGeometry width="50" height="50" relative="1" as="geometry">
            <mxPoint x="399.5" y="30" as="sourcePoint" />
            <mxPoint x="400" y="240" as="targetPoint" />
          </mxGeometry>
        </mxCell>
        <mxCell id="umgBaWDRt0BDjRgJaaFK-3" value="" style="endArrow=none;html=1;rounded=0;" edge="1" parent="1">
          <mxGeometry width="50" height="50" relative="1" as="geometry">
            <mxPoint x="400" y="120" as="sourcePoint" />
            <mxPoint x="560" y="120" as="targetPoint" />
          </mxGeometry>
        </mxCell>
        <mxCell id="umgBaWDRt0BDjRgJaaFK-4" value="&lt;br&gt;&lt;div&gt;#include &amp;lt;iostream&amp;gt;&lt;/div&gt;&lt;div&gt;#include &amp;lt;string&amp;gt;&lt;/div&gt;&lt;div&gt;using namespace std;&lt;/div&gt;&lt;div&gt;&lt;br&gt;&lt;/div&gt;char ForbiddenChars[] = {&#39;0&#39;, &#39;1&#39;, &#39;2&#39;, &#39;3&#39;, &#39;4&#39;, &#39;5&#39;, &#39;6&#39;, &#39;7&#39;, &#39;8&#39;, &#39;9&#39;, &#39;_&#39; , &#39;-&#39;};&lt;br&gt;&lt;div&gt;&lt;div&gt;int main()&lt;/div&gt;&lt;div&gt;{&lt;/div&gt;&lt;div&gt;setlocale(LC_ALL, &quot;RUS&quot;);&amp;nbsp;&lt;span style=&quot;&quot;&gt;&lt;/span&gt;&lt;/div&gt;&lt;div&gt;&lt;span style=&quot;&quot;&gt;&lt;span style=&quot;&quot;&gt;&lt;span style=&quot;white-space: pre;&quot;&gt;&amp;nbsp;&amp;nbsp;&amp;nbsp;&amp;nbsp;&lt;/span&gt;&lt;/span&gt;string input;&amp;nbsp;&lt;/span&gt;&lt;/div&gt;&lt;div&gt;&lt;span style=&quot;&quot;&gt;&lt;span style=&quot;&quot;&gt;&lt;span style=&quot;white-space: pre;&quot;&gt;&amp;nbsp;&amp;nbsp;&amp;nbsp;&amp;nbsp;&lt;/span&gt;&lt;/span&gt;int counter = 0;&lt;/span&gt;&lt;/div&gt;&lt;div&gt;&lt;span style=&quot;&quot;&gt;&lt;span style=&quot;&quot;&gt;&lt;span style=&quot;white-space: pre;&quot;&gt;&amp;nbsp;&amp;nbsp;&amp;nbsp;&amp;nbsp;&lt;/span&gt;&lt;/span&gt;bool flag = false;&lt;/span&gt;&lt;/div&gt;&lt;div&gt;&lt;span style=&quot;&quot;&gt;&lt;span style=&quot;&quot;&gt;&lt;span style=&quot;white-space: pre;&quot;&gt;&amp;nbsp;&amp;nbsp;&amp;nbsp;&amp;nbsp;&lt;/span&gt;&lt;/span&gt;int startIndex = 0;&lt;/span&gt;&lt;/div&gt;&lt;/div&gt;" style="rounded=0;whiteSpace=wrap;html=1;" vertex="1" parent="1">
          <mxGeometry x="560" width="210" height="220" as="geometry" />
        </mxCell>
        <mxCell id="umgBaWDRt0BDjRgJaaFK-7" style="edgeStyle=orthogonalEdgeStyle;rounded=0;orthogonalLoop=1;jettySize=auto;html=1;entryX=0.5;entryY=0;entryDx=0;entryDy=0;" edge="1" parent="1" source="umgBaWDRt0BDjRgJaaFK-5" target="umgBaWDRt0BDjRgJaaFK-6">
          <mxGeometry relative="1" as="geometry" />
        </mxCell>
        <mxCell id="umgBaWDRt0BDjRgJaaFK-5" value="getline(cin, input);" style="shape=parallelogram;perimeter=parallelogramPerimeter;whiteSpace=wrap;html=1;fixedSize=1;" vertex="1" parent="1">
          <mxGeometry x="335" y="240" width="130" height="30" as="geometry" />
        </mxCell>
        <mxCell id="umgBaWDRt0BDjRgJaaFK-6" value="if (input.size() == 0)" style="rhombus;whiteSpace=wrap;html=1;" vertex="1" parent="1">
          <mxGeometry x="335" y="300" width="130" height="80" as="geometry" />
        </mxCell>
        <mxCell id="umgBaWDRt0BDjRgJaaFK-8" value="" style="endArrow=none;html=1;rounded=0;" edge="1" parent="1">
          <mxGeometry width="50" height="50" relative="1" as="geometry">
            <mxPoint x="465" y="339.71" as="sourcePoint" />
            <mxPoint x="560" y="340" as="targetPoint" />
          </mxGeometry>
        </mxCell>
        <mxCell id="umgBaWDRt0BDjRgJaaFK-9" value="0" style="text;html=1;align=center;verticalAlign=middle;whiteSpace=wrap;rounded=0;" vertex="1" parent="1">
          <mxGeometry x="440" y="310" width="60" height="30" as="geometry" />
        </mxCell>
        <mxCell id="umgBaWDRt0BDjRgJaaFK-10" value="" style="endArrow=classic;html=1;rounded=0;" edge="1" parent="1">
          <mxGeometry width="50" height="50" relative="1" as="geometry">
            <mxPoint x="560" y="340" as="sourcePoint" />
            <mxPoint x="560" y="400" as="targetPoint" />
          </mxGeometry>
        </mxCell>
        <mxCell id="umgBaWDRt0BDjRgJaaFK-13" style="edgeStyle=orthogonalEdgeStyle;rounded=0;orthogonalLoop=1;jettySize=auto;html=1;entryX=0.5;entryY=0;entryDx=0;entryDy=0;" edge="1" parent="1" source="umgBaWDRt0BDjRgJaaFK-11" target="umgBaWDRt0BDjRgJaaFK-12">
          <mxGeometry relative="1" as="geometry" />
        </mxCell>
        <mxCell id="umgBaWDRt0BDjRgJaaFK-11" value="input += &#39; &#39;;" style="rounded=0;whiteSpace=wrap;html=1;" vertex="1" parent="1">
          <mxGeometry x="500" y="400" width="120" height="20" as="geometry" />
        </mxCell>
        <mxCell id="umgBaWDRt0BDjRgJaaFK-15" style="edgeStyle=orthogonalEdgeStyle;rounded=0;orthogonalLoop=1;jettySize=auto;html=1;entryX=0.5;entryY=0;entryDx=0;entryDy=0;" edge="1" parent="1" source="umgBaWDRt0BDjRgJaaFK-12" target="umgBaWDRt0BDjRgJaaFK-14">
          <mxGeometry relative="1" as="geometry" />
        </mxCell>
        <mxCell id="umgBaWDRt0BDjRgJaaFK-12" value="while (counter &amp;lt; input.size())" style="rhombus;whiteSpace=wrap;html=1;" vertex="1" parent="1">
          <mxGeometry x="475" y="440" width="170" height="80" as="geometry" />
        </mxCell>
        <mxCell id="umgBaWDRt0BDjRgJaaFK-14" value="if (!flag &amp;amp;&amp;amp; input[counter + 1] != &#39; &#39; &amp;amp;&amp;amp; (counter == 0 || input[counter - 1] == &#39; &#39;) &amp;amp;&amp;amp; Check(input[counter]))" style="rhombus;whiteSpace=wrap;html=1;" vertex="1" parent="1">
          <mxGeometry x="395" y="560" width="330" height="80" as="geometry" />
        </mxCell>
        <mxCell id="umgBaWDRt0BDjRgJaaFK-16" value="1" style="text;html=1;align=center;verticalAlign=middle;whiteSpace=wrap;rounded=0;" vertex="1" parent="1">
          <mxGeometry x="500" y="514.5" width="60" height="30" as="geometry" />
        </mxCell>
        <mxCell id="umgBaWDRt0BDjRgJaaFK-17" value="{" style="text;html=1;align=center;verticalAlign=middle;whiteSpace=wrap;rounded=0;" vertex="1" parent="1">
          <mxGeometry x="570" y="514.5" width="60" height="30" as="geometry" />
        </mxCell>
        <mxCell id="umgBaWDRt0BDjRgJaaFK-18" value="" style="endArrow=none;html=1;rounded=0;" edge="1" parent="1">
          <mxGeometry width="50" height="50" relative="1" as="geometry">
            <mxPoint x="320" y="600" as="sourcePoint" />
            <mxPoint x="395" y="599.71" as="targetPoint" />
          </mxGeometry>
        </mxCell>
        <mxCell id="umgBaWDRt0BDjRgJaaFK-19" value="1" style="text;html=1;align=center;verticalAlign=middle;whiteSpace=wrap;rounded=0;" vertex="1" parent="1">
          <mxGeometry x="360" y="570" width="60" height="30" as="geometry" />
        </mxCell>
        <mxCell id="umgBaWDRt0BDjRgJaaFK-20" value="" style="endArrow=classic;html=1;rounded=0;" edge="1" parent="1">
          <mxGeometry width="50" height="50" relative="1" as="geometry">
            <mxPoint x="320" y="600" as="sourcePoint" />
            <mxPoint x="320" y="640" as="targetPoint" />
          </mxGeometry>
        </mxCell>
        <mxCell id="umgBaWDRt0BDjRgJaaFK-23" style="edgeStyle=orthogonalEdgeStyle;rounded=0;orthogonalLoop=1;jettySize=auto;html=1;entryX=0.5;entryY=0;entryDx=0;entryDy=0;" edge="1" parent="1" source="umgBaWDRt0BDjRgJaaFK-21" target="umgBaWDRt0BDjRgJaaFK-22">
          <mxGeometry relative="1" as="geometry" />
        </mxCell>
        <mxCell id="umgBaWDRt0BDjRgJaaFK-21" value="flag = true;" style="rounded=0;whiteSpace=wrap;html=1;" vertex="1" parent="1">
          <mxGeometry x="260" y="640" width="120" height="20" as="geometry" />
        </mxCell>
        <mxCell id="umgBaWDRt0BDjRgJaaFK-22" value="startIndex = counter;" style="rounded=0;whiteSpace=wrap;html=1;" vertex="1" parent="1">
          <mxGeometry x="260" y="680" width="120" height="20" as="geometry" />
        </mxCell>
        <mxCell id="umgBaWDRt0BDjRgJaaFK-24" value="" style="endArrow=none;html=1;rounded=0;" edge="1" parent="1">
          <mxGeometry width="50" height="50" relative="1" as="geometry">
            <mxPoint x="320" y="760" as="sourcePoint" />
            <mxPoint x="319.71" y="700" as="targetPoint" />
          </mxGeometry>
        </mxCell>
        <mxCell id="umgBaWDRt0BDjRgJaaFK-25" value="{" style="text;html=1;align=center;verticalAlign=middle;whiteSpace=wrap;rounded=0;" vertex="1" parent="1">
          <mxGeometry x="320" y="610" width="60" height="30" as="geometry" />
        </mxCell>
        <mxCell id="umgBaWDRt0BDjRgJaaFK-26" value="}" style="text;html=1;align=center;verticalAlign=middle;whiteSpace=wrap;rounded=0;" vertex="1" parent="1">
          <mxGeometry x="320" y="700" width="60" height="30" as="geometry" />
        </mxCell>
        <mxCell id="umgBaWDRt0BDjRgJaaFK-27" value="" style="endArrow=none;html=1;rounded=0;" edge="1" parent="1">
          <mxGeometry width="50" height="50" relative="1" as="geometry">
            <mxPoint x="725" y="600" as="sourcePoint" />
            <mxPoint x="760" y="600" as="targetPoint" />
          </mxGeometry>
        </mxCell>
        <mxCell id="umgBaWDRt0BDjRgJaaFK-28" value="" style="endArrow=none;html=1;rounded=0;" edge="1" parent="1">
          <mxGeometry width="50" height="50" relative="1" as="geometry">
            <mxPoint x="760" y="760" as="sourcePoint" />
            <mxPoint x="760" y="600" as="targetPoint" />
          </mxGeometry>
        </mxCell>
        <mxCell id="umgBaWDRt0BDjRgJaaFK-29" value="" style="endArrow=none;html=1;rounded=0;" edge="1" parent="1">
          <mxGeometry width="50" height="50" relative="1" as="geometry">
            <mxPoint x="320" y="760" as="sourcePoint" />
            <mxPoint x="760" y="760" as="targetPoint" />
          </mxGeometry>
        </mxCell>
        <mxCell id="umgBaWDRt0BDjRgJaaFK-30" value="0" style="text;html=1;align=center;verticalAlign=middle;whiteSpace=wrap;rounded=0;" vertex="1" parent="1">
          <mxGeometry x="700" y="570" width="60" height="30" as="geometry" />
        </mxCell>
        <mxCell id="umgBaWDRt0BDjRgJaaFK-31" value="" style="endArrow=classic;html=1;rounded=0;" edge="1" parent="1">
          <mxGeometry width="50" height="50" relative="1" as="geometry">
            <mxPoint x="559.43" y="760" as="sourcePoint" />
            <mxPoint x="560" y="800" as="targetPoint" />
          </mxGeometry>
        </mxCell>
        <mxCell id="umgBaWDRt0BDjRgJaaFK-32" value="if (flag &amp;amp;&amp;amp; input[counter] ==&amp;nbsp; &#39; &#39;)" style="rhombus;whiteSpace=wrap;html=1;" vertex="1" parent="1">
          <mxGeometry x="510" y="800" width="100" height="80" as="geometry" />
        </mxCell>
        <mxCell id="umgBaWDRt0BDjRgJaaFK-33" value="" style="endArrow=none;html=1;rounded=0;" edge="1" parent="1">
          <mxGeometry width="50" height="50" relative="1" as="geometry">
            <mxPoint x="440" y="840" as="sourcePoint" />
            <mxPoint x="510" y="839.71" as="targetPoint" />
          </mxGeometry>
        </mxCell>
        <mxCell id="umgBaWDRt0BDjRgJaaFK-34" value="1" style="text;html=1;align=center;verticalAlign=middle;whiteSpace=wrap;rounded=0;" vertex="1" parent="1">
          <mxGeometry x="480" y="810" width="60" height="30" as="geometry" />
        </mxCell>
        <mxCell id="umgBaWDRt0BDjRgJaaFK-35" value="" style="endArrow=classic;html=1;rounded=0;" edge="1" parent="1">
          <mxGeometry width="50" height="50" relative="1" as="geometry">
            <mxPoint x="440" y="840" as="sourcePoint" />
            <mxPoint x="440" y="880" as="targetPoint" />
          </mxGeometry>
        </mxCell>
        <mxCell id="umgBaWDRt0BDjRgJaaFK-38" style="edgeStyle=orthogonalEdgeStyle;rounded=0;orthogonalLoop=1;jettySize=auto;html=1;entryX=0.5;entryY=0;entryDx=0;entryDy=0;" edge="1" parent="1" source="umgBaWDRt0BDjRgJaaFK-36" target="umgBaWDRt0BDjRgJaaFK-37">
          <mxGeometry relative="1" as="geometry" />
        </mxCell>
        <mxCell id="umgBaWDRt0BDjRgJaaFK-36" value="flag = false;" style="rounded=0;whiteSpace=wrap;html=1;" vertex="1" parent="1">
          <mxGeometry x="380" y="880" width="120" height="20" as="geometry" />
        </mxCell>
        <mxCell id="umgBaWDRt0BDjRgJaaFK-40" style="edgeStyle=orthogonalEdgeStyle;rounded=0;orthogonalLoop=1;jettySize=auto;html=1;entryX=0.5;entryY=0;entryDx=0;entryDy=0;" edge="1" parent="1" source="umgBaWDRt0BDjRgJaaFK-37" target="umgBaWDRt0BDjRgJaaFK-39">
          <mxGeometry relative="1" as="geometry" />
        </mxCell>
        <mxCell id="umgBaWDRt0BDjRgJaaFK-37" value="input.erase(startIndex, (counter - startIndex) + 1);" style="rounded=0;whiteSpace=wrap;html=1;" vertex="1" parent="1">
          <mxGeometry x="380" y="930" width="120" height="60" as="geometry" />
        </mxCell>
        <mxCell id="umgBaWDRt0BDjRgJaaFK-39" value="counter -= (counter - startIndex) + 1;" style="rounded=0;whiteSpace=wrap;html=1;" vertex="1" parent="1">
          <mxGeometry x="380" y="1020" width="120" height="60" as="geometry" />
        </mxCell>
        <mxCell id="umgBaWDRt0BDjRgJaaFK-41" value="{" style="text;html=1;align=center;verticalAlign=middle;whiteSpace=wrap;rounded=0;" vertex="1" parent="1">
          <mxGeometry x="440" y="850" width="60" height="30" as="geometry" />
        </mxCell>
        <mxCell id="umgBaWDRt0BDjRgJaaFK-42" value="" style="endArrow=none;html=1;rounded=0;" edge="1" parent="1">
          <mxGeometry width="50" height="50" relative="1" as="geometry">
            <mxPoint x="440" y="1120" as="sourcePoint" />
            <mxPoint x="440" y="1080" as="targetPoint" />
          </mxGeometry>
        </mxCell>
        <mxCell id="umgBaWDRt0BDjRgJaaFK-43" value="}" style="text;html=1;align=center;verticalAlign=middle;whiteSpace=wrap;rounded=0;" vertex="1" parent="1">
          <mxGeometry x="440" y="1080" width="60" height="30" as="geometry" />
        </mxCell>
        <mxCell id="umgBaWDRt0BDjRgJaaFK-45" value="" style="endArrow=none;html=1;rounded=0;" edge="1" parent="1">
          <mxGeometry width="50" height="50" relative="1" as="geometry">
            <mxPoint x="440" y="1120" as="sourcePoint" />
            <mxPoint x="640" y="1120" as="targetPoint" />
          </mxGeometry>
        </mxCell>
        <mxCell id="umgBaWDRt0BDjRgJaaFK-46" value="" style="endArrow=none;html=1;rounded=0;" edge="1" parent="1">
          <mxGeometry width="50" height="50" relative="1" as="geometry">
            <mxPoint x="610" y="840" as="sourcePoint" />
            <mxPoint x="640" y="840" as="targetPoint" />
          </mxGeometry>
        </mxCell>
        <mxCell id="umgBaWDRt0BDjRgJaaFK-47" value="" style="endArrow=none;html=1;rounded=0;" edge="1" parent="1">
          <mxGeometry width="50" height="50" relative="1" as="geometry">
            <mxPoint x="640" y="1120" as="sourcePoint" />
            <mxPoint x="640" y="840" as="targetPoint" />
          </mxGeometry>
        </mxCell>
        <mxCell id="umgBaWDRt0BDjRgJaaFK-48" value="" style="endArrow=classic;html=1;rounded=0;entryX=0.5;entryY=0;entryDx=0;entryDy=0;" edge="1" parent="1" target="umgBaWDRt0BDjRgJaaFK-49">
          <mxGeometry width="50" height="50" relative="1" as="geometry">
            <mxPoint x="560" y="1119" as="sourcePoint" />
            <mxPoint x="560" y="1169" as="targetPoint" />
          </mxGeometry>
        </mxCell>
        <mxCell id="umgBaWDRt0BDjRgJaaFK-49" value="counter++;" style="rounded=0;whiteSpace=wrap;html=1;" vertex="1" parent="1">
          <mxGeometry x="500" y="1148" width="120" height="21" as="geometry" />
        </mxCell>
        <mxCell id="umgBaWDRt0BDjRgJaaFK-50" value="" style="endArrow=none;html=1;rounded=0;" edge="1" parent="1">
          <mxGeometry width="50" height="50" relative="1" as="geometry">
            <mxPoint x="559" y="1200" as="sourcePoint" />
            <mxPoint x="559.4300000000001" y="1169" as="targetPoint" />
          </mxGeometry>
        </mxCell>
        <mxCell id="umgBaWDRt0BDjRgJaaFK-51" value="" style="endArrow=none;html=1;rounded=0;" edge="1" parent="1">
          <mxGeometry width="50" height="50" relative="1" as="geometry">
            <mxPoint x="240" y="1200" as="sourcePoint" />
            <mxPoint x="560" y="1200" as="targetPoint" />
          </mxGeometry>
        </mxCell>
        <mxCell id="umgBaWDRt0BDjRgJaaFK-52" value="" style="endArrow=none;html=1;rounded=0;" edge="1" parent="1">
          <mxGeometry width="50" height="50" relative="1" as="geometry">
            <mxPoint x="240" y="1200" as="sourcePoint" />
            <mxPoint x="240" y="430" as="targetPoint" />
          </mxGeometry>
        </mxCell>
        <mxCell id="umgBaWDRt0BDjRgJaaFK-53" value="" style="endArrow=classic;html=1;rounded=0;" edge="1" parent="1">
          <mxGeometry width="50" height="50" relative="1" as="geometry">
            <mxPoint x="240" y="430" as="sourcePoint" />
            <mxPoint x="560" y="430" as="targetPoint" />
          </mxGeometry>
        </mxCell>
        <mxCell id="umgBaWDRt0BDjRgJaaFK-54" value="}" style="text;html=1;align=center;verticalAlign=middle;whiteSpace=wrap;rounded=0;" vertex="1" parent="1">
          <mxGeometry x="560" y="1169" width="60" height="30" as="geometry" />
        </mxCell>
        <mxCell id="umgBaWDRt0BDjRgJaaFK-55" value="" style="endArrow=none;html=1;rounded=0;" edge="1" parent="1">
          <mxGeometry width="50" height="50" relative="1" as="geometry">
            <mxPoint x="645" y="479.5" as="sourcePoint" />
            <mxPoint x="880" y="480" as="targetPoint" />
          </mxGeometry>
        </mxCell>
        <mxCell id="umgBaWDRt0BDjRgJaaFK-56" value="0" style="text;html=1;align=center;verticalAlign=middle;whiteSpace=wrap;rounded=0;" vertex="1" parent="1">
          <mxGeometry x="630" y="450" width="60" height="30" as="geometry" />
        </mxCell>
        <mxCell id="umgBaWDRt0BDjRgJaaFK-57" value="" style="endArrow=classic;html=1;rounded=0;" edge="1" parent="1">
          <mxGeometry width="50" height="50" relative="1" as="geometry">
            <mxPoint x="880" y="480" as="sourcePoint" />
            <mxPoint x="880" y="520" as="targetPoint" />
          </mxGeometry>
        </mxCell>
        <mxCell id="umgBaWDRt0BDjRgJaaFK-58" value="cout &amp;lt;&amp;lt; input &amp;lt;&amp;lt; endl;" style="shape=parallelogram;perimeter=parallelogramPerimeter;whiteSpace=wrap;html=1;fixedSize=1;" vertex="1" parent="1">
          <mxGeometry x="810" y="520" width="140" height="30" as="geometry" />
        </mxCell>
        <mxCell id="umgBaWDRt0BDjRgJaaFK-59" value="" style="endArrow=none;html=1;rounded=0;" edge="1" parent="1">
          <mxGeometry width="50" height="50" relative="1" as="geometry">
            <mxPoint x="160" y="340" as="sourcePoint" />
            <mxPoint x="335" y="340" as="targetPoint" />
          </mxGeometry>
        </mxCell>
        <mxCell id="umgBaWDRt0BDjRgJaaFK-60" value="{" style="text;html=1;align=center;verticalAlign=middle;whiteSpace=wrap;rounded=0;" vertex="1" parent="1">
          <mxGeometry x="510" y="360" width="60" height="30" as="geometry" />
        </mxCell>
        <mxCell id="umgBaWDRt0BDjRgJaaFK-61" value="" style="endArrow=none;html=1;rounded=0;" edge="1" parent="1">
          <mxGeometry width="50" height="50" relative="1" as="geometry">
            <mxPoint x="879.5" y="550" as="sourcePoint" />
            <mxPoint x="880" y="1280" as="targetPoint" />
          </mxGeometry>
        </mxCell>
        <mxCell id="umgBaWDRt0BDjRgJaaFK-62" value="}" style="text;html=1;align=center;verticalAlign=middle;whiteSpace=wrap;rounded=0;" vertex="1" parent="1">
          <mxGeometry x="870" y="550" width="60" height="30" as="geometry" />
        </mxCell>
        <mxCell id="umgBaWDRt0BDjRgJaaFK-63" value="" style="endArrow=none;html=1;rounded=0;" edge="1" parent="1">
          <mxGeometry width="50" height="50" relative="1" as="geometry">
            <mxPoint x="160" y="1280" as="sourcePoint" />
            <mxPoint x="160" y="340" as="targetPoint" />
          </mxGeometry>
        </mxCell>
        <mxCell id="umgBaWDRt0BDjRgJaaFK-64" value="" style="endArrow=none;html=1;rounded=0;" edge="1" parent="1">
          <mxGeometry width="50" height="50" relative="1" as="geometry">
            <mxPoint x="160" y="1280" as="sourcePoint" />
            <mxPoint x="880" y="1280" as="targetPoint" />
          </mxGeometry>
        </mxCell>
        <mxCell id="umgBaWDRt0BDjRgJaaFK-65" value="" style="endArrow=classic;html=1;rounded=0;" edge="1" parent="1">
          <mxGeometry width="50" height="50" relative="1" as="geometry">
            <mxPoint x="499.17" y="1280" as="sourcePoint" />
            <mxPoint x="499.17" y="1360" as="targetPoint" />
          </mxGeometry>
        </mxCell>
        <mxCell id="umgBaWDRt0BDjRgJaaFK-66" value="return 0;" style="ellipse;whiteSpace=wrap;html=1;" vertex="1" parent="1">
          <mxGeometry x="440" y="1360" width="120" height="20" as="geometry" />
        </mxCell>
        <mxCell id="umgBaWDRt0BDjRgJaaFK-67" value="1" style="text;html=1;align=center;verticalAlign=middle;whiteSpace=wrap;rounded=0;" vertex="1" parent="1">
          <mxGeometry x="310" y="310" width="60" height="30" as="geometry" />
        </mxCell>
        <mxCell id="umgBaWDRt0BDjRgJaaFK-68" value="0" style="text;html=1;align=center;verticalAlign=middle;whiteSpace=wrap;rounded=0;" vertex="1" parent="1">
          <mxGeometry x="590" y="810" width="60" height="30" as="geometry" />
        </mxCell>
        <mxCell id="umgBaWDRt0BDjRgJaaFK-69" value="начало" style="ellipse;whiteSpace=wrap;html=1;" vertex="1" parent="1">
          <mxGeometry x="1181" width="120" height="30" as="geometry" />
        </mxCell>
        <mxCell id="umgBaWDRt0BDjRgJaaFK-71" value="" style="endArrow=classic;html=1;rounded=0;" edge="1" parent="1">
          <mxGeometry width="50" height="50" relative="1" as="geometry">
            <mxPoint x="1240.58" y="30" as="sourcePoint" />
            <mxPoint x="1241" y="240" as="targetPoint" />
          </mxGeometry>
        </mxCell>
        <mxCell id="umgBaWDRt0BDjRgJaaFK-72" value="" style="endArrow=none;html=1;rounded=0;" edge="1" parent="1">
          <mxGeometry width="50" height="50" relative="1" as="geometry">
            <mxPoint x="1240" y="120" as="sourcePoint" />
            <mxPoint x="1360" y="120" as="targetPoint" />
          </mxGeometry>
        </mxCell>
        <mxCell id="umgBaWDRt0BDjRgJaaFK-73" value="&lt;div&gt;#include &amp;lt;iostream&amp;gt;&lt;/div&gt;&lt;div&gt;#include &amp;lt;string&amp;gt;&lt;/div&gt;&lt;div&gt;using namespace std;&lt;/div&gt;&lt;div&gt;char ForbiddenChars[] = {&#39;0&#39;, &#39;1&#39;, &#39;2&#39;, &#39;3&#39;, &#39;4&#39;, &#39;5&#39;, &#39;6&#39;, &#39;7&#39;, &#39;8&#39;, &#39;9&#39;, &#39;_&#39; , &#39;-&#39;};&lt;/div&gt;&lt;div&gt;&lt;br&gt;&lt;/div&gt;&lt;div&gt;&lt;div&gt;&lt;br&gt;&lt;/div&gt;&lt;div&gt;int Check(char element)&amp;nbsp;&amp;nbsp;&lt;span style=&quot;background-color: initial;&quot;&gt;{&lt;/span&gt;&lt;/div&gt;&lt;div&gt;bool flag = false;&amp;nbsp;&lt;span style=&quot;&quot;&gt;&lt;/span&gt;&lt;/div&gt;&lt;div&gt;&lt;span style=&quot;&quot;&gt;&lt;span style=&quot;&quot;&gt;&lt;span style=&quot;white-space: pre;&quot;&gt;&amp;nbsp;&amp;nbsp;&amp;nbsp;&amp;nbsp;&lt;/span&gt;&lt;/span&gt;int counter = 0;&lt;/span&gt;&lt;/div&gt;&lt;/div&gt;" style="rounded=0;whiteSpace=wrap;html=1;" vertex="1" parent="1">
          <mxGeometry x="1360" y="25" width="150" height="170" as="geometry" />
        </mxCell>
        <mxCell id="umgBaWDRt0BDjRgJaaFK-76" style="edgeStyle=orthogonalEdgeStyle;rounded=0;orthogonalLoop=1;jettySize=auto;html=1;entryX=0.5;entryY=0;entryDx=0;entryDy=0;" edge="1" parent="1" source="umgBaWDRt0BDjRgJaaFK-74" target="umgBaWDRt0BDjRgJaaFK-75">
          <mxGeometry relative="1" as="geometry" />
        </mxCell>
        <mxCell id="umgBaWDRt0BDjRgJaaFK-74" value="while (counter &amp;lt; 12 &amp;amp;&amp;amp; !flag)" style="rhombus;whiteSpace=wrap;html=1;" vertex="1" parent="1">
          <mxGeometry x="1151.5" y="240" width="179" height="80" as="geometry" />
        </mxCell>
        <mxCell id="umgBaWDRt0BDjRgJaaFK-78" style="edgeStyle=orthogonalEdgeStyle;rounded=0;orthogonalLoop=1;jettySize=auto;html=1;entryX=0.5;entryY=0;entryDx=0;entryDy=0;" edge="1" parent="1" source="umgBaWDRt0BDjRgJaaFK-75" target="umgBaWDRt0BDjRgJaaFK-77">
          <mxGeometry relative="1" as="geometry" />
        </mxCell>
        <mxCell id="umgBaWDRt0BDjRgJaaFK-75" value="flag = ForbiddenChars[counter] == element;" style="rounded=0;whiteSpace=wrap;html=1;" vertex="1" parent="1">
          <mxGeometry x="1161" y="350" width="159" height="60" as="geometry" />
        </mxCell>
        <mxCell id="umgBaWDRt0BDjRgJaaFK-77" value="counter++;" style="rounded=0;whiteSpace=wrap;html=1;" vertex="1" parent="1">
          <mxGeometry x="1181" y="440" width="120" height="20" as="geometry" />
        </mxCell>
        <mxCell id="umgBaWDRt0BDjRgJaaFK-79" value="" style="endArrow=none;html=1;rounded=0;" edge="1" parent="1">
          <mxGeometry width="50" height="50" relative="1" as="geometry">
            <mxPoint x="1240" y="480" as="sourcePoint" />
            <mxPoint x="1240.71" y="460" as="targetPoint" />
          </mxGeometry>
        </mxCell>
        <mxCell id="umgBaWDRt0BDjRgJaaFK-80" value="" style="endArrow=none;html=1;rounded=0;" edge="1" parent="1">
          <mxGeometry width="50" height="50" relative="1" as="geometry">
            <mxPoint x="1120" y="480" as="sourcePoint" />
            <mxPoint x="1241" y="479.43" as="targetPoint" />
          </mxGeometry>
        </mxCell>
        <mxCell id="umgBaWDRt0BDjRgJaaFK-81" value="" style="endArrow=none;html=1;rounded=0;" edge="1" parent="1">
          <mxGeometry width="50" height="50" relative="1" as="geometry">
            <mxPoint x="1120" y="480" as="sourcePoint" />
            <mxPoint x="1120" y="230" as="targetPoint" />
          </mxGeometry>
        </mxCell>
        <mxCell id="umgBaWDRt0BDjRgJaaFK-82" value="" style="endArrow=classic;html=1;rounded=0;" edge="1" parent="1">
          <mxGeometry width="50" height="50" relative="1" as="geometry">
            <mxPoint x="1120" y="230" as="sourcePoint" />
            <mxPoint x="1240" y="230" as="targetPoint" />
          </mxGeometry>
        </mxCell>
        <mxCell id="umgBaWDRt0BDjRgJaaFK-83" value="1" style="text;html=1;align=center;verticalAlign=middle;whiteSpace=wrap;rounded=0;" vertex="1" parent="1">
          <mxGeometry x="1200" y="320" width="60" height="30" as="geometry" />
        </mxCell>
        <mxCell id="umgBaWDRt0BDjRgJaaFK-84" value="{" style="text;html=1;align=center;verticalAlign=middle;whiteSpace=wrap;rounded=0;" vertex="1" parent="1">
          <mxGeometry x="1220" y="320" width="60" height="30" as="geometry" />
        </mxCell>
        <mxCell id="umgBaWDRt0BDjRgJaaFK-85" value="}" style="text;html=1;align=center;verticalAlign=middle;whiteSpace=wrap;rounded=0;" vertex="1" parent="1">
          <mxGeometry x="1220" y="450" width="60" height="30" as="geometry" />
        </mxCell>
        <mxCell id="umgBaWDRt0BDjRgJaaFK-86" value="" style="endArrow=none;html=1;rounded=0;" edge="1" parent="1">
          <mxGeometry width="50" height="50" relative="1" as="geometry">
            <mxPoint x="1330.5" y="279.71" as="sourcePoint" />
            <mxPoint x="1400.5" y="279.71" as="targetPoint" />
          </mxGeometry>
        </mxCell>
        <mxCell id="umgBaWDRt0BDjRgJaaFK-87" value="0" style="text;html=1;align=center;verticalAlign=middle;whiteSpace=wrap;rounded=0;" vertex="1" parent="1">
          <mxGeometry x="1301" y="250" width="60" height="30" as="geometry" />
        </mxCell>
        <mxCell id="umgBaWDRt0BDjRgJaaFK-88" value="" style="endArrow=classic;html=1;rounded=0;" edge="1" parent="1">
          <mxGeometry width="50" height="50" relative="1" as="geometry">
            <mxPoint x="1400" y="280" as="sourcePoint" />
            <mxPoint x="1400" y="320" as="targetPoint" />
          </mxGeometry>
        </mxCell>
        <mxCell id="umgBaWDRt0BDjRgJaaFK-89" value="return flag;" style="ellipse;whiteSpace=wrap;html=1;" vertex="1" parent="1">
          <mxGeometry x="1340" y="320" width="120" height="20" as="geometry" />
        </mxCell>
        <mxCell id="umgBaWDRt0BDjRgJaaFK-90" value="}" style="text;html=1;align=center;verticalAlign=middle;whiteSpace=wrap;rounded=0;" vertex="1" parent="1">
          <mxGeometry x="480" y="1380" width="60" height="30" as="geometry" />
        </mxCell>
        <mxCell id="umgBaWDRt0BDjRgJaaFK-91" value="}" style="text;html=1;align=center;verticalAlign=middle;whiteSpace=wrap;rounded=0;" vertex="1" parent="1">
          <mxGeometry x="1380" y="340" width="60" height="30" as="geometry" />
        </mxCell>
      </root>
    </mxGraphModel>
  </diagram>
</mxfile>
